<?xml version="1.0" encoding="utf-8"?>
<!-- Generator: Adobe Illustrator 22.0.1, SVG Export Plug-In . SVG Version: 6.00 Build 0)  -->
<svg version="1.1" id="Layer_1" xmlns="http://www.w3.org/2000/svg" xmlns:xlink="http://www.w3.org/1999/xlink" x="0px" y="0px"
	 viewBox="0 0 190 190" style="enable-background:new 0 0 190 190;" xml:space="preserve">
<path d="M148.9,94.9c0,2.5-0.9,4.3-3,6.5l-35.1,35c-1.4,1.4-3.4,2.2-5.6,2.2c-4.6,0-8.1-3.5-8.1-7.9c0-2.4,1-4.3,2.5-5.7l12.5-12.3
	l12.4-10.4l-22.6,0.9H49.4c-4.8,0-8.2-3.5-8.2-8.2c0.1-4.7,3.4-8.2,8.2-8.2H102l22.6,0.9l-12.4-10.3L99.7,64.9
	c-1.4-1.4-2.5-3.4-2.5-5.7c0-4.6,3.5-7.9,8.1-7.9c2.2,0,4.2,0.7,5.6,2.2l35.1,35C148.2,90.7,148.9,92.6,148.9,94.9z M95.1,189
	c51.4,0,94.1-42.6,94.1-93.9S146.3,1,94.9,1S1,43.7,1,95.1S43.7,189,95.1,189z"/>
</svg>
