<?xml version="1.0" encoding="utf-8"?>
<!-- Generator: Adobe Illustrator 22.0.1, SVG Export Plug-In . SVG Version: 6.00 Build 0)  -->
<svg version="1.1" id="Layer_1" xmlns="http://www.w3.org/2000/svg" xmlns:xlink="http://www.w3.org/1999/xlink" x="0px" y="0px"
	 viewBox="0 0 190 190" style="enable-background:new 0 0 190 190;" xml:space="preserve">
<path d="M142.5,94.9c0-2-0.9-3.6-2.7-5.6L109,58.5c-1.2-1.2-3-1.9-5-1.9c-4,0-6.9,3-6.9,6.8c0,2.1,0.9,3.8,2.1,5.1l11,10.9l11,9.1
	l-19.9-0.7H54.9c-4.1,0-7.1,3-7.1,7.2c0,4.1,3,7.1,7.1,7.1h46.5l19.9-0.7l-11,9.2l-11,10.9c-1.4,1.2-2.1,3-2.1,5.1
	c0,3.8,3,6.9,6.9,6.9c2,0,3.7-0.7,5-2l30.8-30.9C141.5,98.8,142.5,97,142.5,94.9z M95.1,172.7c-43.2,0-77.7-34.5-77.7-77.7
	s34.4-77.8,77.6-77.8s77.8,34.6,77.9,77.8C172.9,138.2,138.2,172.7,95.1,172.7z M95.1,189c51.4,0,94.1-42.6,94.1-93.9
	S146.3,1,94.9,1S1,43.7,1,95.1S43.7,189,95.1,189z"/>
</svg>
